<svg xmlns="http://www.w3.org/2000/svg" version="1.0" viewBox="0 0 283 303" fill="currentColor">
  <g>
    <path
       style="fill-rule:nonzero;fill-opacity:1;stroke:none;"
       d="  M 966.75593 115.58267   C 966.43704 117.60235 964.87798 118.77164 963.10633 118.77164   C 960.48428 118.77164 958.78349 116.82283 958.78349 114.27164   C 958.78349 111.68503 960.37798 109.77164 963.07089 109.77164   C 964.91341 109.77164 966.43704 110.87007 966.68507 112.88975   L 965.12601 112.88975   C 964.94885 111.9685 964.09845 111.40157 963.07089 111.40157   C 961.54727 111.40157 960.69688 112.60629 960.69688 114.23621   C 960.69688 115.8307 961.61814 117.14172 963.10633 117.14172   C 964.20475 117.14172 965.01971 116.53936 965.12601 115.58267   L 966.75593 115.58267   z  M 962.82286 120.25983   C 965.94097 120.25983 968.49215 117.74409 968.49215 114.34251   C 968.49215 110.87007 965.94097 108.42519 962.82286 108.42519   C 959.63389 108.42519 957.11814 110.87007 957.11814 114.34251   C 957.11814 117.74409 959.63389 120.25983 962.82286 120.25983   z  M 962.82286 106.79527   C 966.89767 106.79527 970.54727 109.73621 970.54727 114.34251   C 970.54727 118.91338 966.89767 121.85432 962.82286 121.85432   C 958.71263 121.85432 955.09845 118.91338 955.09845 114.34251   C 955.09845 109.73621 958.71263 106.79527 962.82286 106.79527 "/>
    <path
       style="fill-rule:nonzero;fill-opacity:1;stroke:none;"
       d="  M 139.99607 0.035433068   C 70.759845 0.035433068 13.074804 49.251965 0 114.62598   L 58.429136 114.62598   C 62.716537 102.15354 69.803152 90.992119 78.980317 81.779521   C 94.677168 66.118105 116.07874 56.515744 139.99607 56.515744   C 163.91339 56.515744 185.31497 66.118105 201.01182 81.779521   C 216.67323 97.511803 226.2756 118.87794 226.2756 142.79526   C 226.2756 166.71259 216.67323 188.11416 201.01182 203.81101   C 185.31497 219.47242 163.91339 229.07479 139.99607 229.07479   C 116.07874 229.07479 94.677168 219.47242 78.980317 203.81101   C 69.874018 194.70471 62.85827 183.64959 58.535435 171.31888   L 0.14173229 171.31888   L 0.14173229 244.09841   C 0.14173229 305.46848 53.220474 301.85431 53.220474 301.85431   L 53.255907 256.21652   C 77.314963 274.64171 107.36221 285.5551 139.99607 285.59053   C 218.87009 285.5551 282.75591 221.66927 282.79135 142.79526   C 282.75591 63.921255 218.87009 0.035433068 139.99607 0.035433068 " />
    </g>
</svg>
